# xmcd
#
# Track frame offsets:
#	150
#	25920
#	43297
#	59507
#	82192
#	99612
#	119687
#	139492
#	157467
#	174648
#	192468
#	214067
#	231017
#	246788
#	263088
#	278500
#	294357
#	310137
#	326507
#
# Disc length: 4639 seconds
#
# Revision: 0
# Processed by: cddbd v1.5.2PL0 Copyright (c) Steve Scherf et al.
# Submitted via: audiograbber 1.83.01
#
DISCID=2a121d13
DTITLE=Bravo Hits - Bravo Hits 33 - CD2
DYEAR=1900
DGENRE=Pop Sampler
TTITLE0=Glashaus - Wenn das Liebe ist
TTITLE1=Joe - Stutter
TTITLE2=LeAnn Rimes - Can't Fight The Moonlight
TTITLE3=Ricky Martin - Nobody Wants To Be Lonely
TTITLE4=Britney Spears - Don't Let Me Be The Last To Know
TTITLE5=R. Kelly - The Storm Is Over Now
TTITLE6=Brandy and Ray J - Another Day In Paradise
TTITLE7=The Bee Gees - This Is Where I Came In
TTITLE8=Sugababes - Run For Cover
TTITLE9=Nelly Furtado - I'm Like A Bird
TTITLE10=Robbie Williams - Let Love Be Your Energy
TTITLE11=The Vygors - Turn Off The Sun
TTITLE12=No Angels - Rivers Of Joy
TTITLE13=Modern Talking - Win The Race
TTITLE14=Babyboy - Baby Superstar
TTITLE15=Millane Fernandez - Boom Boom
TTITLE16=Girls@Play - Airhead
TTITLE17=Ole feat. Paul, Malte and Philipp - Wir sehen uns wieder
TTITLE18=Thomas D - Uns trennt das Leben
EXTD=
EXTT0=
EXTT1=
EXTT2=
EXTT3=
EXTT4=
EXTT5=
EXTT6=
EXTT7=
EXTT8=
EXTT9=
EXTT10=
EXTT11=
EXTT12=
EXTT13=
EXTT14=
EXTT15=
EXTT16=
EXTT17=
EXTT18=
PLAYORDER=
